<svg xmlns="http://www.w3.org/2000/svg" width="400" height="100" viewBox="0 0 400 100">
  <path d="M0,50 Q10,30 20,50 T40,50 T60,50 T80,50 T100,50 T120,50 T140,50 T160,50 T180,50 T200,50 T220,50 T240,50 T260,50 T280,50 T300,50 T320,50 T340,50 T360,50 T380,50 T400,50" stroke="#6366f1" fill="none" stroke-width="2" />
  <path d="M0,50 Q10,10 20,50 T40,50 T60,50 T80,50 T100,50 T120,50 T140,50 T160,50 T180,50 T200,50 T220,50 T240,50 T260,50 T280,50 T300,50 T320,50 T340,50 T360,50 T380,50 T400,50" stroke="#6366f1" fill="none" stroke-width="1.5" opacity="0.6" />
  <path d="M0,50 Q10,70 20,50 T40,50 T60,50 T80,50 T100,50 T120,50 T140,50 T160,50 T180,50 T200,50 T220,50 T240,50 T260,50 T280,50 T300,50 T320,50 T340,50 T360,50 T380,50 T400,50" stroke="#6366f1" fill="none" stroke-width="1.5" opacity="0.6" />
  <path d="M0,50 Q10,20 20,50 T40,50 T60,50 T80,90 T100,10 T120,50 T140,70 T160,30 T180,50 T200,40 T220,60 T240,50 T260,20 T280,80 T300,50 T320,30 T340,70 T360,50 T380,40 T400,50" stroke="#6366f1" fill="none" stroke-width="2.5" />
</svg> 