<svg width="800" height="400" viewBox="0 0 800 400" fill="none" xmlns="http://www.w3.org/2000/svg">
  <rect width="800" height="400" fill="#F0F9FF"/>
  <rect x="50" y="50" width="700" height="300" rx="12" fill="#FFFFFF"/>
  
  <!-- Title -->
  <text x="400" y="120" font-family="sans-serif" font-size="32" font-weight="bold" text-anchor="middle" fill="#0369A1">Dia by Nari Labs</text>
  <text x="400" y="165" font-family="sans-serif" font-size="18" text-anchor="middle" fill="#334155">The New Leader in AI Voice Technology</text>
  
  <!-- Waveform visualization -->
  <path d="M200 240 Q215 215, 230 240 Q245 265, 260 240 Q275 215, 290 240 Q305 265, 320 240 Q335 215, 350 240" stroke="#0EA5E9" stroke-width="3" stroke-linecap="round"/>
  <path d="M380 240 Q395 225, 410 240 Q425 255, 440 240 Q455 225, 470 240 Q485 255, 500 240 Q515 225, 530 240" stroke="#0EA5E9" stroke-width="3" stroke-linecap="round"/>
  <path d="M560 240 Q575 210, 590 240 Q605 270, 620 240" stroke="#0EA5E9" stroke-width="3" stroke-linecap="round"/>
  
  <!-- Emotional expressions -->
  <circle cx="250" cy="290" r="20" fill="#BAE6FD"/>
  <path d="M240 290 Q250 300, 260 290" stroke="#0369A1" stroke-width="2" stroke-linecap="round"/>
  
  <circle cx="400" cy="290" r="20" fill="#BAE6FD"/>
  <path d="M390 285 L395 293 L410 285" stroke="#0369A1" stroke-width="2" stroke-linecap="round"/>
  <path d="M390 295 Q400 300, 410 295" stroke="#0369A1" stroke-width="2" stroke-linecap="round"/>
  
  <circle cx="550" cy="290" r="20" fill="#BAE6FD"/>
  <path d="M540 290 Q550 280, 560 290" stroke="#0369A1" stroke-width="2" stroke-linecap="round"/>
  
  <!-- Decorative elements -->
  <path d="M180 180 Q250 150, 320 180 Q390 210, 460 180 Q530 150, 600 180" stroke="#7DD3FC" stroke-width="2" stroke-dasharray="4" stroke-linecap="round"/>
  
  <!-- Tags for non-verbal sounds -->
  <rect x="210" y="200" width="80" height="25" rx="12" fill="#0EA5E9" opacity="0.2"/>
  <text x="250" y="218" font-family="sans-serif" font-size="12" text-anchor="middle" fill="#0369A1">(laugh)</text>
  
  <rect x="360" y="200" width="80" height="25" rx="12" fill="#0EA5E9" opacity="0.2"/>
  <text x="400" y="218" font-family="sans-serif" font-size="12" text-anchor="middle" fill="#0369A1">(cough)</text>
  
  <rect x="510" y="200" width="80" height="25" rx="12" fill="#0EA5E9" opacity="0.2"/>
  <text x="550" y="218" font-family="sans-serif" font-size="12" text-anchor="middle" fill="#0369A1">(sigh)</text>
</svg> 