<svg width="800" height="400" viewBox="0 0 800 400" fill="none" xmlns="http://www.w3.org/2000/svg">
  <rect width="800" height="400" fill="#EEF2FF"/>
  <rect x="50" y="50" width="700" height="300" rx="12" fill="#FFFFFF"/>
  <text x="400" y="140" font-family="sans-serif" font-size="32" font-weight="bold" text-anchor="middle" fill="#1E40AF">Nari Labs DIA-1.6B</text>
  <text x="400" y="185" font-family="sans-serif" font-size="18" text-anchor="middle" fill="#4B5563">Next-Generation Open-Source TTS for Realistic Dialogues</text>
  
  <!-- Speech bubble 1 -->
  <path d="M200 250 C200 230, 240 220, 270 230 C300 240, 320 235, 330 240 L335 270 L320 245 C310 250, 280 255, 250 245 C220 235, 200 230, 200 250Z" fill="#DBEAFE" stroke="#3B82F6" stroke-width="2"/>
  
  <!-- Speech bubble 2 -->
  <path d="M470 270 C470 250, 510 240, 540 250 C570 260, 590 255, 600 260 L605 290 L590 265 C580 270, 550 275, 520 265 C490 255, 470 250, 470 270Z" fill="#EDE9FE" stroke="#8B5CF6" stroke-width="2"/>
  
  <!-- Sound waves -->
  <path d="M380 300 C380 300, 390 290, 400 300 C410 310, 420 290, 430 300" stroke="#3B82F6" stroke-width="3" stroke-linecap="round"/>
  <path d="M370 320 C370 320, 390 300, 400 320 C410 340, 430 300, 450 320" stroke="#8B5CF6" stroke-width="3" stroke-linecap="round"/>
  <path d="M360 340 C360 340, 390 310, 400 340 C410 370, 430 310, 460 340" stroke="#3B82F6" stroke-width="3" stroke-linecap="round"/>
</svg> 